<?xml version="1.0" encoding="utf-8"?>
<!-- Generator: Adobe Illustrator 23.0.2, SVG Export Plug-In . SVG Version: 6.00 Build 0)  -->
<svg version="1.1" xmlns="http://www.w3.org/2000/svg" xmlns:xlink="http://www.w3.org/1999/xlink" x="0px" y="0px"
	 viewBox="0 0 360 360" style="enable-background:new 0 0 360 360;" xml:space="preserve">
<style type="text/css">
	.st0{display:none;}
	.st1{fill:#00FFED;}
	.st2{fill:none;stroke:#000000;stroke-width:0.5;stroke-linecap:round;stroke-linejoin:round;}
	.st3{fill:#FF4917;}
	.st4{fill:#00D02B;}
	.st5{fill:#FF73F6;}
	.st6{fill:#FFFD17;}
	.st7{fill:#0100D0;}
	.st8{fill:#BA00FF;stroke:#000000;stroke-width:0.5;stroke-linecap:round;stroke-linejoin:round;}
</style>
<g id="outline">
	<g transform="translate(0.000000,360.000000) scale(0.100000,-0.100000)">
		<g id="XMLID_1_">
			<g>
				<path d="M3350,1625v-315h-156h-155l3-315l3-315h-327h-328v-82c0-107-18-134-100-147c-30-5-56-14-58-20c-7-21-40-12-44,12
					c-2,18-10,23-48,25c-25,2-52,9-60,17c-12,10-26,11-65,4c-27-5-84-11-125-13s-85-4-97-5c-23-1-23-2-23-155V163l-399-7
					c-220-4-508-4-640,0l-241,7v263c0,169,4,264,10,264s10,110,10,310v310H405H300v315v315h-25h-25v269c0,203,3,271,12,278
					c7,6,40,13,72,16c37,4,70,14,87,26c16,12,32,21,37,21s16,9,23,20c10,15,36,25,89,36c72,15,77,18,135,78c33,35,70,69,83,75
					c17,9,21,18,17,32c-8,26,13,51,36,44c14-5,23,4,39,36c11,24,20,49,20,56s4,13,9,13c13,0,20,35,9,54c-7,12-1,24,24,50
					c18,18,38,40,45,49c7,8,18,17,25,19c10,4,10,10-2,32c-12,24-12,28,0,36c8,6,29,10,47,10c17,0,35,5,38,10c3,6,16,10,27,10
					c31,0,138,114,138,147c0,44,34,63,112,63c48,0,74,5,84,15c19,19,34,19,34,0c0-12,22-15,118-17l117-3l6-40c10-72,49-126,100-138
					c23-6,27-15,43-89c10-46,25-100,33-120c13-31,14-53,5-139c-10-93-9-108,9-158c10-30,19-65,19-76s-21-55-46-98
					c-46-77-46-77-34-126c9-39,18-52,44-66c30-16,34-17,65-1c31,17,88,14,101-3c10-14,91-41,123-41c39,0,52,8,61,38
					c10,30,45,62,69,62c10,0,33-10,50-22c27-20,45-23,118-23c94,0,109-7,136-59c14-27,64-98,93-133c11-13,71-8,106,9
					c33,16,151-17,189-52c17-15,55-40,85-55s69-38,87-51c17-13,43-28,57-34c14-5,43-21,66-35l40-25V1625z M3330,1331l-2,301l-3,301
					l-60,31c-33,17-74,41-90,52c-17,12-55,34-85,49s-68,40-85,55c-34,32-146,65-173,51c-25-12-115-22-127-13c-10,7-49,65-106,156
					l-25,39l-97,1c-59,1-101,5-105,12c-4,6-17,16-29,23c-12,6-24,11-27,11c-10,0-35-31-42-53c-4-12-14-27-23-34c-19-15-90-17-125-3
					l-26,10v-195v-195h-79c-43,0-106,3-140,6c-56,6-61,9-61,30c0,14-6,24-14,24c-7,0-28,3-45,6c-29,6-31,5-31-25v-31h-254
					c-139,0-268-3-285-6l-31-6v-99v-99h-130H900v-230v-230h-40c-33,0-40,3-40,20c0,22-26,28-33,8c-4-10-7-10-18,0c-9,8-49,12-126,12
					H530V995c0-203-4-315-10-315s-10-90-10-249V183l231-7c127-4,406-4,619,0l389,7l3,151l3,150l35,9c19,4,42,8,50,7
					c57-2,123,2,174,11c50,9,61,8,77-7c13-12,29-15,52-11c38,6,50,0,60-27c6-15,10-16,23-5c9,7,36,13,61,14c65,1,81,26,85,135l3,85
					l325,5l325,5v310v310l153,3L3330,1331z M2080,1950v189v189l-34,16c-32,15-37,15-69,0c-67-32-121,2-139,87l-12,57l41,63
					c55,85,59,106,34,177c-18,54-19,68-10,156c6,54,9,99,7,101c-1,2-15,6-31,10c-21,6-27,4-27-9c0-9-7-16-16-16c-14,0-16-7-11-45
					l7-45h-90c-88,0-91-1-100-26c-15-39-12-91,7-109c12-13,17-39,19-105c3-81,2-88-17-93c-38-10-89,4-89,24c0,10-9,23-19,29
					c-25,13-36,47-21,65c16,19,5,76-19,101s-60,54-66,54c-3,0-5-32-5-70c0-89-17-120-67-120c-26,0-36,5-40,20c-4,17-14,20-56,20h-50
					l6-50l6-50h-79h-79l-6-55c-7-49-10-55-31-55s-24-5-24-40v-40h76c78,0,104-11,104-44c0-11,9-16,29-16c42,0,57-55,24-92
					c-12-14-17-46-21-143l-5-125h252h251v24c0,34,13,39,76,31c48-6,54-9,54-29s6-24,53-30c28-3,82-6,120-6H2080z M1885,3015l-13,60
					c-26,115-36,140-57,143c-11,2-28,11-39,21c-26,23-66,105-66,136v25h-145h-145v-269v-269l38-31c58-49,65-58,79-103
					c10-35,10-46-1-63c-15-23-11-45,9-45c7,0,16-11,19-25c5-20,13-25,36-25c27,0,29,3,36,45c4,33,1,58-12,93c-22,57-23,170-3,183
					c8,5,50,9,94,9h80v57v58h45H1885z M1400,3045v355h-48c-51,0-72-12-72-43c0-44-110-167-150-167c-10,0-22-4-25-10
					c-3-5-25-10-48-10c-32,0-38-3-29-12c19-19,15-59-6-65c-10-2-26-19-36-38c-10-18-27-36-39-39c-17-4-18-8-8-20c12-14,7-54-8-66
					c-4-3-15-25-26-50c-25-60-34-70-59-70c-19,0-22-4-18-29c3-23-1-30-17-36c-20-6-21-12-21-186v-179h94h95l3,48c3,40,6,47,26,50
					c23,3,28,22,24,85l-2,27h79h80l3,48l3,47l68,3c53,2,67,0,67-11c0-23,45-27,59-5C1397,2684,1400,2797,1400,3045z M1214,2239
					c26,29,13,61-25,61c-20,0-29,5-29,16c0,8-6,22-14,30c-11,11-48,14-168,14l-153-1l-67-62l-68-62v-143v-142h249h248l5,135
					C1196,2195,1200,2223,1214,2239z M1140,1751v89v90H843c-164,0-349,3-410,7l-113,6v-306v-307h260c253,0,260-1,260-20
					c0-13,7-20,20-20c19,0,20,8,22,228l3,227l128,3L1140,1751z M731,2302c33,29,56,54,50,56c-7,2-11,62-11,178c0,96-3,174-7,173
					c-5,0-30-24-56-53c-39-43-57-55-98-64c-28-7-61-12-74-12s-29-10-39-25c-9-14-21-25-27-25c-5,0-22-9-37-20c-18-13-52-23-92-28
					l-65-7l-3-257l-2-258h57c32,0,122-3,201-7l142-6v151v151L731,2302z"/>
			</g>
			<g>
			</g>
		</g>
	</g>
	<g id="Layer_3">
	</g>
	<g id="Layer_4" class="st0">
	</g>
</g>
<g id="Lakeville">
	<g id="XMLID_6_">
		<g>
			<path class="st1" d="M114,176v8.9l-12.7,0.3l-12.8,0.3l-0.3,22.7C88,230.2,87.9,231,86,231c-1.3,0-2-0.7-2-2c0-1.9-0.7-2-26-2H32
				v-30.7v-30.6l11.3,0.6c6.1,0.4,24.6,0.7,41,0.7H114V176z"/>
		</g>
		<g>
			<path class="st2" d="M84.3,167H114v9v8.9l-12.7,0.3l-12.8,0.3l-0.3,22.7C88,230.2,87.9,231,86,231c-1.3,0-2-0.7-2-2
				c0-1.9-0.7-2-26-2H32v-30.7v-30.6l11.3,0.6C49.4,166.7,67.9,167,84.3,167z"/>
		</g>
	</g>
</g>
<g id="TheRest">
	<g id="XMLID_7_">
		<g>
			<path class="st3" d="M332.8,196.8l0.2,30.1l-15.2,0.3l-15.3,0.3v31v31L270,290l-32.5,0.5l-0.3,8.5c-0.4,10.9-2,13.4-8.5,13.5
				c-2.5,0.1-5.2,0.7-6.1,1.4c-1.3,1.1-1.7,1-2.3-0.5c-1-2.7-2.2-3.3-6-2.7c-2.3,0.4-3.9,0.1-5.2-1.1c-1.6-1.5-2.7-1.6-7.7-0.7
				c-5.1,0.9-11.7,1.3-17.4,1.1c-0.8-0.1-3.1,0.3-5,0.7l-3.5,0.9l-0.3,15l-0.3,15.1l-38.9,0.7c-21.3,0.4-49.2,0.4-61.9,0L51,341.7
				v-24.8c0-15.9,0.4-24.9,1-24.9s1-11.2,1-31.5V229h11.3c7.7,0,11.7,0.4,12.6,1.2c1.1,1,1.4,1,1.8,0c0.7-2,3.3-1.4,3.3,0.8
				c0,1.7,0.7,2,4,2h4v-23v-23h13h13v-9.9v-9.9l3.1-0.6c1.7-0.3,14.6-0.6,28.5-0.6H173v-3.1c0-3,0.2-3.1,3.1-2.5
				c1.7,0.3,3.8,0.6,4.5,0.6c0.8,0,1.4,1,1.4,2.4c0,2.1,0.5,2.4,6.1,3c3.4,0.3,9.7,0.6,14,0.6h7.9v-19.5V128l2.6,1
				c3.5,1.4,10.6,1.2,12.5-0.3c0.9-0.7,1.9-2.2,2.3-3.4c0.7-2.2,3.2-5.3,4.2-5.3c0.3,0,1.5,0.5,2.7,1.1c1.2,0.7,2.5,1.7,2.9,2.3
				c0.4,0.7,4.6,1.1,10.5,1.2l9.7,0.1l2.5,3.9c5.7,9.1,9.6,14.9,10.6,15.6c1.2,0.9,10.2-0.1,12.7-1.3c2.7-1.4,13.9,1.9,17.3,5.1
				c1.7,1.5,5.5,4,8.5,5.5s6.8,3.7,8.5,4.9c1.6,1.1,5.7,3.5,9,5.2l6,3.1L332.8,196.8z"/>
		</g>
		<g>
			<path class="st2" d="M234.3,121.1c1.2,0.7,2.5,1.7,2.9,2.3c0.4,0.7,4.6,1.1,10.5,1.2l9.7,0.1l2.5,3.9c5.7,9.1,9.6,14.9,10.6,15.6
				c1.2,0.9,10.2-0.1,12.7-1.3c2.7-1.4,13.9,1.9,17.3,5.1c1.7,1.5,5.5,4,8.5,5.5s6.8,3.7,8.5,4.9c1.6,1.1,5.7,3.5,9,5.2l6,3.1
				l0.3,30.1l0.2,30.1l-15.2,0.3l-15.3,0.3v31v31L270,290l-32.5,0.5l-0.3,8.5c-0.4,10.9-2,13.4-8.5,13.5c-2.5,0.1-5.2,0.7-6.1,1.4
				c-1.3,1.1-1.7,1-2.3-0.5c-1-2.7-2.2-3.3-6-2.7c-2.3,0.4-3.9,0.1-5.2-1.1c-1.6-1.5-2.7-1.6-7.7-0.7c-5.1,0.9-11.7,1.3-17.4,1.1
				c-0.8-0.1-3.1,0.3-5,0.7l-3.5,0.9l-0.3,15l-0.3,15.1l-38.9,0.7c-21.3,0.4-49.2,0.4-61.9,0L51,341.7v-24.8c0-15.9,0.4-24.9,1-24.9
				s1-11.2,1-31.5V229h11.3c7.7,0,11.7,0.4,12.6,1.2c1.1,1,1.4,1,1.8,0c0.7-2,3.3-1.4,3.3,0.8c0,1.7,0.7,2,4,2h4v-23v-23h13h13v-9.9
				v-9.9l3.1-0.6c1.7-0.3,14.6-0.6,28.5-0.6H173v-3.1c0-3,0.2-3.1,3.1-2.5c1.7,0.3,3.8,0.6,4.5,0.6c0.8,0,1.4,1,1.4,2.4
				c0,2.1,0.5,2.4,6.1,3c3.4,0.3,9.7,0.6,14,0.6h7.9v-19.5V128l2.6,1c3.5,1.4,10.6,1.2,12.5-0.3c0.9-0.7,1.9-2.2,2.3-3.4
				c0.7-2.2,3.2-5.3,4.2-5.3C231.9,120,233.1,120.5,234.3,121.1z"/>
		</g>
	</g>
</g>
<g id="Rosemount">
	<g id="XMLID_2_">
		<g>
			<path class="st4" d="M208,146.1V165h-6.7c-3.8,0-9.2-0.3-12-0.6c-4.7-0.6-5.3-1-5.3-3s-0.6-2.3-5.4-2.9c-6.3-0.8-7.6-0.3-7.6,3.1
				v2.4h-25.1h-25.2l0.5-12.5c0.4-9.7,0.9-12.9,2.1-14.3c3.3-3.7,1.8-9.2-2.4-9.2c-2,0-2.9-0.5-2.9-1.6c0-3.3-2.6-4.4-10.4-4.4H100
				v-4c0-3.5,0.3-4,2.4-4s2.4-0.6,3.1-5.5l0.6-5.5h7.9h7.9l-0.6-5l-0.6-5h5c4.2,0,5.2,0.3,5.6,2c0.4,1.5,1.4,2,4,2
				c5,0,6.7-3.1,6.7-12c0-3.8,0.2-7,0.5-7c0.6,0,4.2,2.9,6.6,5.4c2.4,2.5,3.5,8.2,1.9,10.1c-1.5,1.8-0.4,5.2,2.1,6.5
				c1,0.6,1.9,1.9,1.9,2.9c0,2,5.1,3.4,8.9,2.4c1.9-0.5,2-1.2,1.7-9.3c-0.2-6.6-0.7-9.2-1.9-10.5c-1.9-1.8-2.2-7-0.7-10.9
				c0.9-2.5,1.2-2.6,10-2.6h9l-0.7-4.5c-0.5-3.8-0.3-4.5,1.1-4.5c0.9,0,1.6-0.7,1.6-1.6c0-1.3,0.6-1.5,2.7-0.9c1.6,0.4,3,0.8,3.1,1
				c0.2,0.2-0.1,4.7-0.7,10.1c-0.9,8.8-0.8,10.2,1,15.6c2.5,7.1,2.1,9.2-3.4,17.7l-4.1,6.3l1.2,5.7c1.8,8.5,7.2,11.9,13.9,8.7
				c3.2-1.5,3.7-1.5,6.9,0l3.4,1.6V146.1z"/>
		</g>
		<g>
			<path class="st2" d="M189.8,61.5c0.2,0.2-0.1,4.7-0.7,10.1c-0.9,8.8-0.8,10.2,1,15.6c2.5,7.1,2.1,9.2-3.4,17.7l-4.1,6.3l1.2,5.7
				c1.8,8.5,7.2,11.9,13.9,8.7c3.2-1.5,3.7-1.5,6.9,0l3.4,1.6v18.9V165h-6.7c-3.8,0-9.2-0.3-12-0.6c-4.7-0.6-5.3-1-5.3-3
				s-0.6-2.3-5.4-2.9c-6.3-0.8-7.6-0.3-7.6,3.1v2.4h-25.1h-25.2l0.5-12.5c0.4-9.7,0.9-12.9,2.1-14.3c3.3-3.7,1.8-9.2-2.4-9.2
				c-2,0-2.9-0.5-2.9-1.6c0-3.3-2.6-4.4-10.4-4.4H100v-4c0-3.5,0.3-4,2.4-4s2.4-0.6,3.1-5.5l0.6-5.5h7.9h7.9l-0.6-5l-0.6-5h5
				c4.2,0,5.2,0.3,5.6,2c0.4,1.5,1.4,2,4,2c5,0,6.7-3.1,6.7-12c0-3.8,0.2-7,0.5-7c0.6,0,4.2,2.9,6.6,5.4c2.4,2.5,3.5,8.2,1.9,10.1
				c-1.5,1.8-0.4,5.2,2.1,6.5c1,0.6,1.9,1.9,1.9,2.9c0,2,5.1,3.4,8.9,2.4c1.9-0.5,2-1.2,1.7-9.3c-0.2-6.6-0.7-9.2-1.9-10.5
				c-1.9-1.8-2.2-7-0.7-10.9c0.9-2.5,1.2-2.6,10-2.6h9l-0.7-4.5c-0.5-3.8-0.3-4.5,1.1-4.5c0.9,0,1.6-0.7,1.6-1.6
				c0-1.3,0.6-1.5,2.7-0.9C188.3,60.9,189.7,61.3,189.8,61.5z"/>
		</g>
	</g>
</g>
<g id="Eagan">
	<g id="XMLID_3_">
		<g>
			<path class="st5" d="M140,20v35.5c0,24.8-0.3,36.1-1.1,37.3c-1.4,2.2-5.9,1.8-5.9-0.5c0-1.1-1.4-1.3-6.7-1.1l-6.8,0.3l-0.3,4.7
				l-0.3,4.8h-8H103l0.2,2.7c0.4,6.3-0.1,8.2-2.4,8.5c-2,0.3-2.3,1-2.6,5l-0.3,4.8h-9.5H79v-17.9c0-17.4,0.1-18,2.1-18.6
				c1.6-0.6,2-1.3,1.7-3.6c-0.4-2.5-0.1-2.9,1.8-2.9c2.5,0,3.4-1,5.9-7c1.1-2.5,2.2-4.7,2.6-5c1.5-1.2,2-5.2,0.8-6.6
				c-1-1.2-0.9-1.6,0.8-2c1.2-0.3,2.9-2.1,3.9-3.9c1-1.9,2.6-3.6,3.6-3.8c2.1-0.6,2.5-4.6,0.6-6.5c-0.9-0.9-0.3-1.2,2.9-1.2
				c2.3,0,4.5-0.5,4.8-1c0.3-0.6,1.5-1,2.5-1c4,0,15-12.3,15-16.7c0-3.1,2.1-4.3,7.2-4.3H140z"/>
		</g>
		<g>
			<path class="st2" d="M140,55.5c0,24.8-0.3,36.1-1.1,37.3c-1.4,2.2-5.9,1.8-5.9-0.5c0-1.1-1.4-1.3-6.7-1.1l-6.8,0.3l-0.3,4.7
				l-0.3,4.8h-8H103l0.2,2.7c0.4,6.3-0.1,8.2-2.4,8.5c-2,0.3-2.3,1-2.6,5l-0.3,4.8h-9.5H79v-17.9c0-17.4,0.1-18,2.1-18.6
				c1.6-0.6,2-1.3,1.7-3.6c-0.4-2.5-0.1-2.9,1.8-2.9c2.5,0,3.4-1,5.9-7c1.1-2.5,2.2-4.7,2.6-5c1.5-1.2,2-5.2,0.8-6.6
				c-1-1.2-0.9-1.6,0.8-2c1.2-0.3,2.9-2.1,3.9-3.9c1-1.9,2.6-3.6,3.6-3.8c2.1-0.6,2.5-4.6,0.6-6.5c-0.9-0.9-0.3-1.2,2.9-1.2
				c2.3,0,4.5-0.5,4.8-1c0.3-0.6,1.5-1,2.5-1c4,0,15-12.3,15-16.7c0-3.1,2.1-4.3,7.2-4.3h4.8V55.5z"/>
		</g>
	</g>
</g>
<g id="Apple_Valley">
	<g id="XMLID_4_">
		<g>
			<path class="st6" d="M118.9,130c3.8,0,5.1,3.2,2.5,6.1c-1.4,1.6-1.8,4.4-2.2,15.4l-0.5,13.5H93.9H69v-14.2v-14.3l6.8-6.2l6.7-6.2
				l15.3-0.1c12,0,15.7,0.3,16.8,1.4c0.8,0.8,1.4,2.2,1.4,3C116,129.5,116.9,130,118.9,130z"/>
		</g>
		<g>
			<path class="st2" d="M114.6,125.4c0.8,0.8,1.4,2.2,1.4,3c0,1.1,0.9,1.6,2.9,1.6c3.8,0,5.1,3.2,2.5,6.1c-1.4,1.6-1.8,4.4-2.2,15.4
				l-0.5,13.5H93.9H69v-14.2v-14.3l6.8-6.2l6.7-6.2l15.3-0.1C109.8,124,113.5,124.3,114.6,125.4z"/>
		</g>
	</g>
</g>
<g id="Burnsville">
	<g id="XMLID_5_">
		<g>
			<path class="st7" d="M78.1,124.2c0.6,0.2-1.7,2.7-5,5.6l-6.1,5.3v15.1v15.1l-14.2-0.6c-7.9-0.4-16.9-0.7-20.1-0.7H27l0.2-25.8
				l0.3-25.7l6.5-0.7c4-0.5,7.4-1.5,9.2-2.8c1.5-1.1,3.2-2,3.7-2c0.6,0,1.8-1.1,2.7-2.5c1-1.5,2.6-2.5,3.9-2.5s4.6-0.5,7.4-1.2
				c4.1-0.9,5.9-2.1,9.8-6.4c2.6-2.9,5.1-5.3,5.6-5.3c0.4-0.1,0.7,7.7,0.7,17.3C77,118,77.4,124,78.1,124.2z"/>
		</g>
		<g>
			<path class="st2" d="M77,106.4c0,11.6,0.4,17.6,1.1,17.8c0.6,0.2-1.7,2.7-5,5.6l-6.1,5.3v15.1v15.1l-14.2-0.6
				c-7.9-0.4-16.9-0.7-20.1-0.7H27l0.2-25.8l0.3-25.7l6.5-0.7c4-0.5,7.4-1.5,9.2-2.8c1.5-1.1,3.2-2,3.7-2c0.6,0,1.8-1.1,2.7-2.5
				c1-1.5,2.6-2.5,3.9-2.5s4.6-0.5,7.4-1.2c4.1-0.9,5.9-2.1,9.8-6.4c2.6-2.9,5.1-5.3,5.6-5.3C76.7,89,77,96.8,77,106.4z"/>
		</g>
	</g>
</g>
<g id="WSTP">
	<path class="st8" d="M171,22.5c0,3.1,4,11.3,6.6,13.6c1.1,1,2.8,1.9,3.9,2.1c2.1,0.3,3.1,2.8,5.7,14.3l1.3,6H184h-4.5v5.8V70h-8
		c-4.4,0-8.6,0.4-9.4,0.9c-2,1.3-1.9,12.6,0.3,18.3c1.3,3.5,1.6,6,1.2,9.3c-0.7,4.2-0.9,4.5-3.6,4.5c-2.3,0-3.1-0.5-3.6-2.5
		c-0.3-1.4-1.2-2.5-1.9-2.5c-2,0-2.4-2.2-0.9-4.5c1.1-1.7,1.1-2.8,0.1-6.3c-1.4-4.5-2.1-5.4-7.9-10.3l-3.8-3.1V46.9V20h14.5H171
		V22.5z"/>
</g>
</svg>
